<?xml version="1.0" encoding="UTF-8"?>
<svg xmlns="http://www.w3.org/2000/svg" xmlns:xlink="http://www.w3.org/1999/xlink" width="39px" height="39px" viewBox="0 0 39 39" version="1.1">
<g id="surface1">
<path style=" stroke:none;fill-rule:evenodd;fill:rgb(15.294118%,52.941176%,96.078431%);fill-opacity:1;" d="M 13.519531 0 L 25.480469 0 C 36.398438 0 39 2.601562 39 13.519531 L 39 25.480469 C 39 36.398438 36.398438 39 25.480469 39 L 13.519531 39 C 2.601562 39 0 36.398438 0 25.480469 L 0 13.519531 C 0 2.601562 2.601562 0 13.519531 0 Z M 13.519531 0 "/>
<path style=" stroke:none;fill-rule:evenodd;fill:rgb(100%,100%,100%);fill-opacity:1;" d="M 31.9375 13.4375 C 32.117188 12.832031 31.9375 12.390625 31.078125 12.390625 L 28.234375 12.390625 C 27.511719 12.390625 27.179688 12.773438 26.996094 13.195312 C 26.996094 13.195312 25.550781 16.71875 23.503906 19.007812 C 22.839844 19.671875 22.539062 19.882812 22.175781 19.882812 C 21.996094 19.882812 21.734375 19.671875 21.734375 19.070312 L 21.734375 13.4375 C 21.734375 12.710938 21.523438 12.390625 20.921875 12.390625 L 16.453125 12.390625 C 16 12.390625 15.730469 12.726562 15.730469 13.042969 C 15.730469 13.730469 16.753906 13.886719 16.859375 15.816406 L 16.859375 20.003906 C 16.859375 20.921875 16.695312 21.089844 16.332031 21.089844 C 15.367188 21.089844 13.023438 17.546875 11.632812 13.496094 C 11.359375 12.707031 11.085938 12.390625 10.359375 12.390625 L 7.515625 12.390625 C 6.703125 12.390625 6.539062 12.773438 6.539062 13.195312 C 6.539062 13.949219 7.503906 17.683594 11.03125 22.625 C 13.378906 26 16.691406 27.828125 19.703125 27.828125 C 21.511719 27.828125 21.734375 27.421875 21.734375 26.722656 L 21.734375 24.171875 C 21.734375 23.359375 21.90625 23.195312 22.476562 23.195312 C 22.898438 23.195312 23.621094 23.40625 25.308594 25.035156 C 27.238281 26.964844 27.554688 27.828125 28.640625 27.828125 L 31.484375 27.828125 C 32.296875 27.828125 32.703125 27.421875 32.46875 26.621094 C 32.210938 25.820312 31.292969 24.660156 30.070312 23.289062 C 29.40625 22.503906 28.414062 21.660156 28.113281 21.238281 C 27.691406 20.695312 27.8125 20.457031 28.113281 19.972656 C 28.113281 19.972656 31.578125 15.09375 31.9375 13.4375 Z M 31.9375 13.4375 "/>
</g>
</svg>
